<svg version="1.2" baseProfile="tiny-ps" xmlns="http://www.w3.org/2000/svg" viewBox="0 0 600 600" width="600" height="600"><title>whiteplus</title><style>tspan { white-space:pre }.shp0 { fill: #ffffff } </style><path class="shp0" d="M235 75C235 47.39 257.39 25 285 25L315 25C342.61 25 365 47.39 365 75L365 525C365 552.61 342.61 575 315 575L285 575C257.39 575 235 552.61 235 525L235 75Z" /><path class="shp0" d="M525 235C552.61 235 575 257.39 575 285L575 315C575 342.61 552.61 365 525 365L75 365C47.39 365 25 342.61 25 315L25 285C25 257.39 47.39 235 75 235L525 235Z" /></svg>